<?xml version="1.0" encoding="UTF-8" standalone="no"?>
<svg width="24px" height="24px" version="1.1" xmlns="http://www.w3.org/2000/svg" xmlns:xlink="http://www.w3.org/1999/xlink" xmlns:sketch="http://www.bohemiancoding.com/sketch/ns">
    <title>check dark</title>
    <g id="check" fill="hsla(0,0%,100%,.5)" fill-rule="evenodd">
        <path d="M17.7433025,7.1823492 L18.8668328,8.30587953 C19.1878079,8.62685462 19.185113,9.13238128 18.8716514,9.44584284 L10.9335472,17.3839471 C10.6181153,17.699379 10.1097067,17.6952513 9.79358389,17.3791285 L8.67005357,16.2555981 C8.66958954,16.2551341 8.66912618,16.2546697 8.6688121,16.2543469 C8.6680151,16.2535564 8.66721933,16.2527639 8.66642481,16.2519694 L5.26058818,12.8461327 C4.95210121,12.5376458 4.95146242,12.0244707 5.26758522,11.7083479 L6.39111554,10.5848175 C6.71209064,10.2638425 7.21664197,10.2655621 7.52890041,10.5778205 L10.3659748,13.4148949 L16.6033392,7.1775306 C16.9187711,6.86209865 17.4271797,6.86622641 17.7433025,7.1823492 C17.7433025,7.1823492 17.4271797,6.86622641 17.7433025,7.1823492 L17.7433025,7.1823492 L17.7433025,7.1823492 Z M17.7433025,7.1823492"></path>
    </g>
</svg>