<?xml version="1.0" encoding="UTF-8" standalone="no"?>
<svg width="920px" height="400px" version="1.1" xmlns="http://www.w3.org/2000/svg" xmlns:xlink="http://www.w3.org/1999/xlink" xmlns:sketch="http://www.bohemiancoding.com/sketch/ns">
    <title>Digit</title>
    <description>Created with Sketch (http://www.bohemiancoding.com/sketch)</description>
    <defs></defs>
    <g id="Page 1" fill="rgb(223,223,223)" fill-rule="evenodd">
        <text id="DIGIT" fill="rgb(213,213,213)" font-family="PT Sans Narrow" font-size="264" font-style="condensed" font-weight="normal">
            <tspan x="330.56" y="333.048566">DIGIT</tspan>
        </text>
        <g id="Icon">
            <path d="M266,200 C265.999995,89.5430446 176.456955,0 66,0 C-44.4569554,1.66785363e-05 92.0000004,89.5430445 91.9999989,200 C91.9999956,310.456955 -44.4569554,400 66,400 C176.456955,400 266,310.456955 266,200 Z M266,200" id="Oval 1 copy 2" stroke="rgb(182,230,133)" stroke-width="10" fill-opacity="0.304515165" fill="rgb(182,230,132)"></path>
            <path d="M206,200 C206,122.127846 142.872154,59 65,59 C-12.8721536,59 59.4374989,122.127846 59.4374984,200 C59.4374989,277.872154 -12.8721536,341 65,341 C142.872154,341 206,277.872154 206,200 Z M206,200" id="Oval 1 copy" stroke="rgb(52,224,194)" stroke-width="20" fill-opacity="0.501464844" fill="rgb(52,224,193)"></path>
            <path d="M56,280 C100.182782,280 136,244.182782 136,200 C136,155.817218 100.182782,120 56,120 C11.8172178,120 16.0000009,155.817218 16,200 C16.0000009,244.182782 11.8172178,280 56,280 Z M56,280" id="Oval 3" stroke="rgb(56,146,227)" stroke-width="30" fill-opacity="0.404641544" fill="rgb(56,146,227)"></path>
        </g>
    </g>
</svg>