<?xml version="1.0" encoding="UTF-8" standalone="no"?>
<svg width="220px" height="220px" version="1.1" xmlns="http://www.w3.org/2000/svg" xmlns:xlink="http://www.w3.org/1999/xlink" xmlns:sketch="http://www.bohemiancoding.com/sketch/ns">
    <title>icon</title>
    <description>Created with Sketch (http://www.bohemiancoding.com/sketch)</description>
    <defs></defs>
    <g id="Page 1" fill="rgb(223,223,223)" fill-rule="evenodd">
        <path d="M101.786285,12.1551829 C48.3954575,12.1551829 97.9725147,56.0312747 97.9725144,110.155183 C97.9725147,164.279091 48.3954575,208.155183 101.786285,208.155183 C155.177113,208.155183 198.458926,164.279091 198.458926,110.155183 C198.458926,56.0312747 155.177113,12.1551829 101.786285,12.1551829 L101.786285,12.1551829 L101.786285,12.1551829 L101.786285,12.1551829 Z M101.786285,12.1551829" id="Oval 1 copy 2" stroke="rgb(191,234,255)" stroke-width="4" fill="rgb(212,241,255)"></path>
        <path d="M70.1424554,39.6402099 C31.0213202,39.6402099 67.3479859,71.3541526 67.3479857,110.475288 C67.3479859,149.596423 31.0213202,181.310366 70.1424554,181.310366 C109.263591,181.310366 140.977533,149.596423 140.977533,110.475288 C140.977533,71.3541526 109.263591,39.6402099 70.1424554,39.6402099 L70.1424554,39.6402099 L70.1424554,39.6402099 L70.1424554,39.6402099 Z M70.1424554,39.6402099" id="Oval 1 copy" stroke="rgb(116,213,255)" stroke-width="8" fill="rgb(176,231,254)"></path>
        <path d="M86.3384283,110.475288 C86.3384283,88.2788991 68.344702,70.2851727 46.1483132,70.2851727 C23.9519244,70.2851727 26.0532561,88.2788991 26.0532557,110.475288 C26.0532561,132.671677 23.9519244,150.665403 46.1483132,150.665403 C68.344702,150.665403 86.3384283,132.671677 86.3384283,110.475288 Z M86.3384283,110.475288" id="Oval 3" stroke="rgb(0,185,255)" stroke-width="12" fill="rgb(143,219,253)"></path>
    </g>
</svg>