<?xml version="1.0" encoding="UTF-8" standalone="no"?>
<svg width="176px" height="192px" viewBox="0 0 176 192" version="1.1" xmlns="http://www.w3.org/2000/svg" xmlns:xlink="http://www.w3.org/1999/xlink" xmlns:sketch="http://www.bohemiancoding.com/sketch/ns">
    <title>Slice 1</title>
    <description>Created with Sketch (http://www.bohemiancoding.com/sketch)</description>
    <defs>
        <linearGradient x1="50%" y1="0%" x2="50%" y2="100%" id="linearGradient-1">
            <stop stop-color="#FFC11A" offset="0%"></stop>
            <stop stop-color="#E1741B" offset="100%"></stop>
        </linearGradient>
    </defs>
    <g id="Page 1" fill="#D8D8D8" fill-rule="evenodd">
        <path d="M96,164.49092 C133.555365,164.49092 164,134.046285 164,96.4909198 C164,58.9355546 133.555365,28.4909198 96,28.4909198 L71.1597395,28.4909198 C70.9401974,29.0300197 63.1013981,28.7644912 58.8289043,28.5788632 C55.640572,18.90677 46.6268678,12 36,12 C22.745165,12 12,22.745165 12,36 C12,49.254835 22.745165,60 36,60 C46.5254197,60 55.4683281,53.2244698 58.7050449,43.79709 L95.9573433,43.7509509 C124.687931,43.7509509 147.978672,67.0416915 147.978672,95.7722793 C147.978672,124.502867 124.687931,147.793608 95.9573433,147.793608 L71.0604585,147.793608 C71.6750344,150.429624 72,153.176862 72,156 C72,158.924954 71.6511721,161.768434 70.9928939,164.49092 L96,164.49092 Z M43.936015,71.1223917 C41.3828,71.6968336 38.7268042,72 36,72 C33.2503995,72 30.5727962,71.6917434 28,71.1079344 L28,120.892066 C28.0502277,120.880668 28.1006352,120.869345 28.1510825,120.858127 L28.1510829,133.312816 C18.7507044,136.564474 12,145.493881 12,156 C12,169.254835 22.745165,180 36,180 C49.254835,180 60,169.254835 60,156 C60,145.526393 53.2910123,136.619755 43.936015,133.343132 L43.936015,71.1223917 Z M95.9573433,135.793608 C118.060514,135.793608 135.978672,117.87545 135.978672,95.7722793 C135.978672,73.6691085 118.060514,55.7509509 95.9573433,55.7509509 L66.1030221,55.7509509 C63.4369419,59.8061444 59.9736227,63.290307 55.936015,65.9805358 L55.936015,126.019464 C59.8216812,128.608438 63.1755427,131.932814 65.7986159,135.793608 L95.9573433,135.793608 Z M16,65.9378044 C6.35214756,59.4797722 0,48.4816983 0,36 C0,16.117748 16.117748,0 36,0 C48.6921795,0 59.8260644,6.56818865 66.2235617,16.4909198 L96,16.4909198 C140.182782,16.4909198 176,52.3081376 176,96.4909198 C176,140.673702 140.182782,176.49092 96,176.49092 L65.6033071,176.49092 C59.1040255,185.862773 48.2687262,192 36,192 C16.117748,192 0,175.882252 0,156 C0,143.518393 6.35205509,132.520388 16,126.062196 L16,65.9378044 Z M36,48 C42.6274173,48 48,42.6274173 48,36 C48,29.3725827 42.6274173,24 36,24 C29.3725827,24 24,29.3725827 24,36 C24,42.6274173 29.3725827,48 36,48 Z M36,168 C42.6274173,168 48,162.627417 48,156 C48,149.372583 42.6274173,144 36,144 C29.3725827,144 24,149.372583 24,156 C24,162.627417 29.3725827,168 36,168 Z M36,168" id="D" fill="url(#linearGradient-1)"></path>
    </g>
</svg>