<?xml version="1.0" encoding="UTF-8" standalone="no"?>
<svg width="200px" height="200px" viewBox="0 0 200 200" version="1.1" xmlns="http://www.w3.org/2000/svg" xmlns:xlink="http://www.w3.org/1999/xlink" xmlns:sketch="http://www.bohemiancoding.com/sketch/ns">
    <!-- Generator: Sketch 3.0.3 (7891) - http://www.bohemiancoding.com/sketch -->
    <title>icon</title>
    <desc>Created with Sketch.</desc>
    <defs></defs>
    <g id="Page-1" stroke="none" stroke-width="1" fill="none" fill-rule="evenodd" sketch:type="MSPage">
        <path d="M67.1881582,19.6240421 C65.9770761,8.61075719 71.3067486,2.15518288 91.7862854,2.15518288 C145.177113,2.15518288 188.458926,46.0312747 188.458926,100.155183 C188.458926,154.279091 145.177113,198.155183 91.7862854,198.155183 C71.9233862,198.155183 66.3117633,192.08251 67.0967861,181.668704 C106.98246,176.311173 137.742368,142.075329 137.742368,100.64021 C137.742368,59.2367372 107.029428,25.0215466 67.1881582,19.6240421 Z" id="Oval-1-copy-2" opacity="0.247609608" fill="#6494ED" sketch:type="MSShapeGroup"></path>
        <path d="M44.9807919,53.0340058 C39.8744728,38.6688811 39.2688125,29.6402099 60.1424554,29.6402099 C99.2635906,29.6402099 130.977533,61.3541526 130.977533,100.475288 C130.977533,139.596423 99.2635906,171.310366 60.1424554,171.310366 C39.2688125,171.310366 39.8744728,162.281695 44.9807919,147.91657 C66.5923142,142.949245 82.7096042,123.594465 82.7096042,100.475288 C82.7096042,77.3561109 66.5923142,58.0013309 44.9807919,53.0340058 Z" id="Oval-1-copy" opacity="0.504636228" fill="#6494ED" sketch:type="MSShapeGroup"></path>
        <path d="M76.3384283,100.475288 C76.3384283,78.2788991 58.344702,60.2851727 36.1483132,60.2851727 C13.9519244,60.2851727 16.0532561,78.2788991 16.0532557,100.475288 C16.0532561,122.671677 13.9519244,140.665403 36.1483132,140.665403 C58.344702,140.665403 76.3384283,122.671677 76.3384283,100.475288 Z" id="Oval-3" fill="#6494ED" sketch:type="MSShapeGroup"></path>
    </g>
</svg>